<svg id="Capa_1" data-name="Capa 1" xmlns="http://www.w3.org/2000/svg" viewBox="0 0 100 100"><title>Sin título-3_Mesa de trabajo 1_Mesa de trabajo 1</title><text transform="translate(30.6 88.1)" font-size="14.12" font-family="MicrosoftYaHeiUILight, Microsoft YaHei UI">Figma</text><path id="path0_fill" data-name="path0 fill" d="M52.7,56.8V48.2H44.1A9.1,9.1,0,0,0,35,55.6,8.9,8.9,0,0,0,45.3,65.9,9.2,9.2,0,0,0,52.7,56.8Z" fill="#0acf83"/><path id="path1_fill" data-name="path1 fill" d="M44.3,30.6h8.4V48.2H43.9a8.8,8.8,0,0,1-8.8-9.6C35.5,34,39.7,30.6,44.3,30.6Z" fill="#a259ff"/><path id="path1_fill-2" data-name="path1 fill" d="M44.3,13h8.4V30.6H43.9A8.8,8.8,0,0,1,35.1,21C35.5,16.4,39.7,13,44.3,13Z" fill="#f24e1e"/><path id="path2_fill" data-name="path2 fill" d="M52.7,13H61a9.1,9.1,0,0,1,9.2,8,8.8,8.8,0,0,1-8.7,9.6H52.7Z" fill="#ff7262"/><path id="path3_fill" data-name="path3 fill" d="M70.7,39.1a8.9,8.9,0,1,1-8.9-8.9A8.9,8.9,0,0,1,70.7,39.1Z" fill="#1abcfe"/></svg>