<svg id="Capa_1" data-name="Capa 1" xmlns="http://www.w3.org/2000/svg" xmlns:xlink="http://www.w3.org/1999/xlink" viewBox="0 0 100 100"><defs><linearGradient id="Degradado_sin_nombre_2" x1="-6.58" y1="101.69" x2="-6.17" y2="101.39" gradientTransform="matrix(95, 0, 0, -131, 655, 13343.98)" gradientUnits="userSpaceOnUse"><stop offset="0" stop-color="#fff" stop-opacity="0.1"/><stop offset="0.14" stop-color="#fff" stop-opacity="0.08"/><stop offset="0.61" stop-color="#fff" stop-opacity="0.02"/><stop offset="1" stop-color="#fff" stop-opacity="0"/></linearGradient></defs><title>Sin título-2_Mesa de trabajo 1</title><text transform="translate(23.8 88.1)" font-size="14.12" font-family="MicrosoftYaHeiUILight, Microsoft YaHei UI">Fi<tspan x="10.2" y="0" letter-spacing="-0.02em">r</tspan><tspan x="14.9" y="0">ebase</tspan></text><path d="M31.1,56.8l6.4-40.9a1.3,1.3,0,0,1,1-1,1.1,1.1,0,0,1,1.2.6l6.6,12.3,2.7-5a1.1,1.1,0,0,1,1-.6,1.1,1.1,0,0,1,1.1.6l17.8,34Z" fill="#ffa000"/><path d="M53.2,40,46.3,27,31.1,56Z" fill="#f57c00"/><path d="M68.9,56,64,25.6a1.2,1.2,0,0,0-.8-.9A1.1,1.1,0,0,0,62,25L31.1,56l17.1,9.5a3.2,3.2,0,0,0,3.5,0L68.9,56Z" fill="#ffca28"/><path d="M64,26.5a1.2,1.2,0,0,0-.8-.9,1,1,0,0,0-1.2.3L55.9,32l-4.8-9.2a1.3,1.3,0,0,0-1.1-.6,1.1,1.1,0,0,0-1,.6l-2.7,5L39.7,15.5a1.1,1.1,0,0,0-1.2-.6,1.3,1.3,0,0,0-1,1L31.1,56.8h.2L62,26.2a1,1,0,0,1,1.2-.3,1.2,1.2,0,0,1,.8.9l4.9,30.1h0L64,26.5ZM31.2,55.9l6.3-40.6a1.3,1.3,0,0,1,1-1,1.1,1.1,0,0,1,1.2.6l6.6,12.4L49,22.2a1.1,1.1,0,0,1,1-.6,1.1,1.1,0,0,1,1.1.6l4.7,9L31.2,55.9Z" fill="#fff" fill-opacity="0.2"/><path d="M51.7,65.3a3.6,3.6,0,0,1-3.5,0L31.1,55.7V56l17.1,9.5a3.6,3.6,0,0,0,3.5,0L68.9,56v-.3L51.7,65.3Z" fill="#a52714" opacity="0.2" style="isolation:isolate"/><path id="b" d="M64,25.6a1.2,1.2,0,0,0-.8-.9A1.3,1.3,0,0,0,62,25l-6.1,6.1-4.8-9.2a1.7,1.7,0,0,0-1.1-.6,1.3,1.3,0,0,0-1,.6L46.3,27,39.7,14.6a1.1,1.1,0,0,0-1.2-.6,1.3,1.3,0,0,0-1,1L31.2,55.9l17,9.6a3.6,3.6,0,0,0,3.5,0l17.2-9.6L64,25.6Z" fill="url(#Degradado_sin_nombre_2)"/></svg>