<svg id="Capa_1" data-name="Capa 1" xmlns="http://www.w3.org/2000/svg" viewBox="0 0 100 100"><title>front</title><text transform="translate(11.6 53.7)" font-size="7.86" font-family="MicrosoftYaHeiUILight, Microsoft YaHei UI">HTML</text><text transform="translate(74.6 53.7)" font-size="7.86" font-family="MicrosoftYaHeiUILight, Microsoft YaHei UI">CSS</text><polygon id="polygon2989" points="92 14.3 89.5 42.8 78 46 66.6 42.8 64 14.3 92 14.3" fill="#264de4"/><polygon id="polygon2991" points="87.4 40.6 89.6 16.2 78.2 16.2 78.2 43.1 87.4 40.6" fill="#2965f1"/><polygon id="polygon2993" points="69.3 27 69.6 30.8 78.2 30.8 78.2 27 69.3 27" fill="#ebebeb"/><polygon id="polygon2995" points="78.2 19.4 78.2 19.4 68.6 19.4 69 23.2 78.2 23.2 78.2 19.4" fill="#ebebeb"/><polygon id="polygon2997" points="78.2 39.6 78.2 35.9 78.1 35.9 74.3 34.9 74 32.1 72.1 32.1 70.5 32.1 71 37.6 78.1 39.6 78.2 39.6" fill="#ebebeb"/><polygon id="polygon3005" points="82.6 30.8 82.1 35.4 78.2 36.5 78.2 40.2 85.5 38.2 85.5 37.6 86.4 28.2 86.5 27.2 87.1 20 78.2 20 78.2 23.2 83.4 23.2 83.1 27 78.2 27 78.2 30.8 82.6 30.8" fill="#fff"/><path d="M10.8,41,8.4,14.4H34.5L32.1,41,21.4,44" fill="#e44d26"/><path d="M21.5,41.3v-25H32.2L30.1,39.1" fill="#f16529"/><path d="M12.9,19.6h8.6v3.3H16.9l.3,3.3h4.3v3.3H14.3m0,1.9h3.3l.2,2.7,3.7.9v3.4l-6.7-1.8" fill="#ebebeb"/><path d="M30,19.6H21.5v3.3h7.9m0,3.3H21.5v3.3h4l-.4,4.2-3.6,1v3.4l6.7-1.8" fill="#fff"/><rect x="32" y="58" width="32" height="32" fill="#f7df1e"/><path d="M53.5,82.8a3.4,3.4,0,0,0,3,1.9c1.3,0,2.1-.7,2.1-1.5s-.8-1.5-2.2-2.1l-.8-.3c-2.2-.9-3.6-2.1-3.6-4.6s1.7-4,4.4-4a4.6,4.6,0,0,1,4.4,2.4l-2.4,1.6a2,2,0,0,0-2-1.3A1.2,1.2,0,0,0,55,76.2c0,.9.6,1.2,1.9,1.8l.7.3c2.6,1.1,4.1,2.3,4.1,4.8s-2.2,4.3-5.1,4.3a5.8,5.8,0,0,1-5.5-3.2Zm-11-.1c.4.8.9,1.6,1.9,1.6s1.6-.4,1.6-2V72h3V82.4c0,3.1-1.8,4.6-4.5,4.6A4.7,4.7,0,0,1,40,84.2Z"/></svg>