<svg id="Capa_1" data-name="Capa 1" xmlns="http://www.w3.org/2000/svg" viewBox="0 0 100 100"><title>Sin título-3_Mesa de trabajo 1</title><text transform="translate(20.5 88.1)" font-size="14.12" font-family="MicrosoftYaHeiUILight, Microsoft YaHei UI">Illustrator</text><path d="M33.4,15H66.6a9.2,9.2,0,0,1,9.1,9.2V55.8A9.2,9.2,0,0,1,66.6,65H33.4a9.2,9.2,0,0,1-9.1-9.2V24.2A9.2,9.2,0,0,1,33.4,15Z" fill="#300"/><path d="M48.9,44.4H40.1L38.3,50a.5.5,0,0,1-.5.3H34.7c-.3,0-.3-.1-.3-.4l6.8-19.4a2.5,2.5,0,0,1,.2-.7,5.7,5.7,0,0,0,.1-1.3c0-.1.1-.2.2-.3h5.4c.2,0,.3.1.3.2L55,50c.1.2,0,.3-.2.3H51.2c-.2,0-.3-.1-.4-.3ZM41.8,40h5.4c-.2-.4-.3-1-.5-1.5l-.6-1.8-.6-2-.6-1.9c-.2-.6-.3-1.1-.5-1.6h0a26.8,26.8,0,0,1-.7,2.7l-1,3.1Q42.3,38.7,41.8,40Zm18.3-8.9a2.8,2.8,0,0,1-1.8-4.7,2.6,2.6,0,0,1,1.9-.7,2.7,2.7,0,0,1,2,.7,3.2,3.2,0,0,1,.7,1.9,2.7,2.7,0,0,1-2.8,2.8ZM58.4,50.3a.3.3,0,0,1-.3-.3V33c0-.3.1-.4.2-.4h3.9a.3.3,0,0,1,.3.3v17c0,.3-.1.4-.3.4Z" fill="#ff9a00"/></svg>