<svg id="Capa_1" data-name="Capa 1" xmlns="http://www.w3.org/2000/svg" viewBox="0 0 100 100"><title>Sin título-1</title><path d="M49.6,15.2c-15,.4-19.4,11.1-20.4,16.9,1.3-2.2,5.5-6.9,11.6-6.9s12.7,8.1,16,10.6a25.3,25.3,0,0,0,22.9,3.7C88.2,37,92.1,27.9,93,23.6c-4.1,5.6-10.4,9-18.1,5C69.6,25.9,65.6,14.6,49.6,15.2Z" fill="#07b6d5"/><path d="M28.4,40.6C13.5,41,9,51.7,8,57.5c1.3-2.1,5.5-6.8,11.7-6.8s12.6,8,15.9,10.5A25.6,25.6,0,0,0,58.5,65C67,62.4,71,53.3,71.8,49c-4.1,5.6-10.3,9-18.1,5C48.4,51.3,44.4,40.1,28.4,40.6Z" fill="#07b6d5"/><text transform="translate(25.3 88.1)" font-size="14.12" font-family="MicrosoftYaHeiUILight, Microsoft YaHei UI" letter-spacing="-0.17em">T<tspan x="5.3" y="0" letter-spacing="0em">ailwind</tspan></text></svg>