<svg id="Capa_1" data-name="Capa 1" xmlns="http://www.w3.org/2000/svg" viewBox="0 0 100 100"><title>Sin título-1</title><path d="M50.6,15.2c-15,.4-19.4,11.1-20.4,16.9,1.3-2.2,5.5-6.9,11.6-6.9s12.7,8.1,16,10.6a25.3,25.3,0,0,0,22.9,3.7C89.2,37,93.1,27.9,94,23.6c-4.1,5.6-10.4,9-18.1,5C70.6,25.9,66.6,14.6,50.6,15.2Z" fill="#07b6d5"/><path d="M29.4,40.6C14.5,41,10,51.7,9,57.5c1.3-2.1,5.5-6.8,11.7-6.8s12.6,8,15.9,10.5A25.6,25.6,0,0,0,59.5,65C68,62.4,72,53.3,72.8,49c-4.1,5.6-10.3,9-18.1,5C49.4,51.3,45.4,40.1,29.4,40.6Z" fill="#07b6d5"/><text transform="translate(16.8 87.7)" font-size="12.01" font-family="MicrosoftYaHeiUILight, Microsoft YaHei UI"><tspan letter-spacing="-0.17em">T</tspan><tspan x="4.5" y="0">ailwind CSS</tspan></text></svg>